<svg xmlns="http://www.w3.org/2000/svg" width="129" height="129" fill="none"><path fill="url(#a)" d="M128.287 64.783c0 35.328-28.672 64-64 64s-64-28.672-64-64c0-35.329 28.672-64 64-64s64 28.671 64 64Z"/><path fill="#fff" d="M74.42 37.215a7.364 7.364 0 1 0-13.955 4.704l17.14 50.852a7.364 7.364 0 0 0 13.956-4.704l-17.14-50.852ZM47.794 46.19a7.364 7.364 0 0 0-13.955 4.705l9.252 27.447a7.364 7.364 0 1 0 13.956-4.704L47.794 46.19Z"/><defs><radialGradient id="a" cx="0" cy="0" r="1" gradientTransform="rotate(71.338 20.353 29.507) scale(234.723)" gradientUnits="userSpaceOnUse"><stop stop-color="#ea152f"/><stop offset="1" stop-color="#40060d"/></radialGradient></defs></svg>
